<mxfile host="app.diagrams.net" modified="2023-07-25T11:55:29.335Z" agent="Mozilla/5.0 (Windows NT 10.0; Win64; x64) AppleWebKit/537.36 (KHTML, like Gecko) Chrome/115.0.0.0 Safari/537.36" etag="hyqcqoRKSZMwHeQEK53v" version="21.6.5" type="device">
  <diagram name="Página-1" id="kzUicE4KyKBoCqzZGCLQ">
    <mxGraphModel dx="1799" dy="931" grid="1" gridSize="10" guides="1" tooltips="1" connect="1" arrows="1" fold="1" page="1" pageScale="1" pageWidth="827" pageHeight="1169" math="0" shadow="0">
      <root>
        <mxCell id="0" />
        <mxCell id="1" parent="0" />
        <mxCell id="TnxETldwRz7vRZBNHloN-1" value="&lt;div style=&quot;font-size: 12px;&quot;&gt;&lt;span style=&quot;font-size: 12px;&quot;&gt;&lt;font style=&quot;font-size: 12px;&quot;&gt;Uma clínica veterinária deseja cadastrar os pets que são atendidos em seu local.&lt;/font&gt;&lt;/span&gt;&lt;/div&gt;&lt;div style=&quot;font-size: 12px;&quot;&gt;&lt;span style=&quot;font-size: 12px;&quot;&gt;&lt;font style=&quot;font-size: 12px;&quot;&gt;&lt;br style=&quot;font-size: 12px;&quot;&gt;&lt;/font&gt;&lt;/span&gt;&lt;/div&gt;&lt;div style=&quot;font-size: 12px;&quot;&gt;&lt;span style=&quot;font-size: 12px;&quot;&gt;&lt;font style=&quot;font-size: 12px;&quot;&gt;- a clínica contém um endereço;&lt;/font&gt;&lt;/span&gt;&lt;/div&gt;&lt;div style=&quot;font-size: 12px;&quot;&gt;&lt;span style=&quot;font-size: 12px;&quot;&gt;&lt;font style=&quot;font-size: 12px;&quot;&gt;- os pets deverão ter nome, data de nascimento, tipo de pet;&lt;/font&gt;&lt;/span&gt;&lt;/div&gt;&lt;div style=&quot;font-size: 12px;&quot;&gt;&lt;span style=&quot;font-size: 12px;&quot;&gt;&lt;font style=&quot;font-size: 12px;&quot;&gt;- os pets deverão ter raça;&lt;/font&gt;&lt;/span&gt;&lt;/div&gt;&lt;div style=&quot;font-size: 12px;&quot;&gt;&lt;span style=&quot;font-size: 12px;&quot;&gt;&lt;font style=&quot;font-size: 12px;&quot;&gt;- os pets deverão ter donos;&lt;/font&gt;&lt;/span&gt;&lt;/div&gt;&lt;div style=&quot;font-size: 12px;&quot;&gt;&lt;span style=&quot;font-size: 12px;&quot;&gt;&lt;font style=&quot;font-size: 12px;&quot;&gt;- a clínica deseja cadastrar seus veterinários e todo atendimento de pet será feito por um veterinário;&lt;/font&gt;&lt;/span&gt;&lt;/div&gt;&lt;div style=&quot;font-size: 12px;&quot;&gt;&lt;span style=&quot;font-size: 12px;&quot;&gt;&lt;font style=&quot;font-size: 12px;&quot;&gt;&lt;br style=&quot;font-size: 12px;&quot;&gt;&lt;/font&gt;&lt;/span&gt;&lt;/div&gt;&lt;div style=&quot;font-size: 12px;&quot;&gt;&lt;span style=&quot;font-size: 12px;&quot;&gt;&lt;font style=&quot;font-size: 12px;&quot;&gt;DML&lt;/font&gt;&lt;/span&gt;&lt;/div&gt;&lt;div style=&quot;font-size: 12px;&quot;&gt;&lt;span style=&quot;font-size: 12px;&quot;&gt;&lt;font style=&quot;font-size: 12px;&quot;&gt;&lt;br style=&quot;font-size: 12px;&quot;&gt;&lt;/font&gt;&lt;/span&gt;&lt;/div&gt;&lt;div style=&quot;font-size: 12px;&quot;&gt;&lt;span style=&quot;font-size: 12px;&quot;&gt;&lt;font style=&quot;font-size: 12px;&quot;&gt;- cada atendimento deve registrar qual veterinário atendeu, qual pet foi atendido, descrição da consulta e data da consulta&lt;/font&gt;&lt;/span&gt;&lt;/div&gt;&lt;div style=&quot;font-size: 12px;&quot;&gt;&lt;span style=&quot;font-size: 12px;&quot;&gt;&lt;font style=&quot;font-size: 12px;&quot;&gt;&lt;br style=&quot;font-size: 12px;&quot;&gt;&lt;/font&gt;&lt;/span&gt;&lt;/div&gt;&lt;div style=&quot;font-size: 12px;&quot;&gt;&lt;span style=&quot;font-size: 12px;&quot;&gt;&lt;font style=&quot;font-size: 12px;&quot;&gt;DQL&lt;/font&gt;&lt;/span&gt;&lt;/div&gt;&lt;div style=&quot;font-size: 12px;&quot;&gt;&lt;span style=&quot;font-size: 12px;&quot;&gt;&lt;font style=&quot;font-size: 12px;&quot;&gt;&lt;br style=&quot;font-size: 12px;&quot;&gt;&lt;/font&gt;&lt;/span&gt;&lt;/div&gt;&lt;div style=&quot;font-size: 12px;&quot;&gt;&lt;span style=&quot;font-size: 12px;&quot;&gt;&lt;font style=&quot;font-size: 12px;&quot;&gt;- listar todos os veterinários (nome e CRMV) de uma clínica (razão social)&lt;/font&gt;&lt;/span&gt;&lt;/div&gt;&lt;div style=&quot;font-size: 12px;&quot;&gt;&lt;span style=&quot;font-size: 12px;&quot;&gt;&lt;font style=&quot;font-size: 12px;&quot;&gt;- listar todas as raças que começam com a letra S&lt;/font&gt;&lt;/span&gt;&lt;/div&gt;&lt;div style=&quot;font-size: 12px;&quot;&gt;&lt;span style=&quot;font-size: 12px;&quot;&gt;&lt;font style=&quot;font-size: 12px;&quot;&gt;- listar todos os tipos de pet que terminam com a letra O&lt;/font&gt;&lt;/span&gt;&lt;/div&gt;&lt;div style=&quot;font-size: 12px;&quot;&gt;&lt;span style=&quot;font-size: 12px;&quot;&gt;&lt;font style=&quot;font-size: 12px;&quot;&gt;- listar todos os pets mostrando os nomes dos seus donos&lt;/font&gt;&lt;/span&gt;&lt;/div&gt;&lt;div style=&quot;font-size: 12px;&quot;&gt;&lt;span style=&quot;font-size: 12px;&quot;&gt;&lt;font style=&quot;font-size: 12px;&quot;&gt;- listar todos os atendimentos mostrando o nome do veterinário que atendeu, o nome, a raça e o tipo do pet que foi atendido, o nome do dono do pet e o nome da clínica onde o pet foi atendido&lt;/font&gt;&lt;/span&gt;&lt;/div&gt;" style="text;html=1;align=center;verticalAlign=middle;resizable=0;points=[];autosize=1;strokeColor=none;fillColor=none;fontSize=12;fontStyle=1" vertex="1" parent="1">
          <mxGeometry x="-146" y="150" width="1120" height="290" as="geometry" />
        </mxCell>
        <mxCell id="TnxETldwRz7vRZBNHloN-16" value="" style="edgeStyle=orthogonalEdgeStyle;rounded=0;orthogonalLoop=1;jettySize=auto;html=1;endArrow=none;endFill=0;" edge="1" parent="1" source="TnxETldwRz7vRZBNHloN-2" target="TnxETldwRz7vRZBNHloN-5">
          <mxGeometry relative="1" as="geometry" />
        </mxCell>
        <mxCell id="TnxETldwRz7vRZBNHloN-37" style="edgeStyle=orthogonalEdgeStyle;rounded=0;orthogonalLoop=1;jettySize=auto;html=1;exitX=0.5;exitY=1;exitDx=0;exitDy=0;entryX=0.5;entryY=0;entryDx=0;entryDy=0;endArrow=none;endFill=0;" edge="1" parent="1" source="TnxETldwRz7vRZBNHloN-2" target="TnxETldwRz7vRZBNHloN-36">
          <mxGeometry relative="1" as="geometry" />
        </mxCell>
        <mxCell id="TnxETldwRz7vRZBNHloN-2" value="clínica" style="rounded=0;whiteSpace=wrap;html=1;" vertex="1" parent="1">
          <mxGeometry x="66" y="605" width="120" height="60" as="geometry" />
        </mxCell>
        <mxCell id="TnxETldwRz7vRZBNHloN-18" value="" style="edgeStyle=orthogonalEdgeStyle;rounded=0;orthogonalLoop=1;jettySize=auto;html=1;endArrow=none;endFill=0;" edge="1" parent="1" source="TnxETldwRz7vRZBNHloN-3" target="TnxETldwRz7vRZBNHloN-2">
          <mxGeometry relative="1" as="geometry" />
        </mxCell>
        <mxCell id="TnxETldwRz7vRZBNHloN-3" value="endereço" style="ellipse;whiteSpace=wrap;html=1;" vertex="1" parent="1">
          <mxGeometry x="86" y="515" width="80" height="50" as="geometry" />
        </mxCell>
        <mxCell id="TnxETldwRz7vRZBNHloN-25" value="" style="edgeStyle=orthogonalEdgeStyle;rounded=0;orthogonalLoop=1;jettySize=auto;html=1;endArrow=none;endFill=0;" edge="1" parent="1" source="TnxETldwRz7vRZBNHloN-4" target="TnxETldwRz7vRZBNHloN-24">
          <mxGeometry relative="1" as="geometry" />
        </mxCell>
        <mxCell id="TnxETldwRz7vRZBNHloN-31" value="" style="edgeStyle=orthogonalEdgeStyle;rounded=0;orthogonalLoop=1;jettySize=auto;html=1;endArrow=none;endFill=0;" edge="1" parent="1" source="TnxETldwRz7vRZBNHloN-4">
          <mxGeometry relative="1" as="geometry">
            <mxPoint x="416" y="535" as="targetPoint" />
          </mxGeometry>
        </mxCell>
        <mxCell id="TnxETldwRz7vRZBNHloN-43" style="edgeStyle=orthogonalEdgeStyle;rounded=0;orthogonalLoop=1;jettySize=auto;html=1;exitX=0.5;exitY=1;exitDx=0;exitDy=0;endArrow=none;endFill=0;" edge="1" parent="1" source="TnxETldwRz7vRZBNHloN-4" target="TnxETldwRz7vRZBNHloN-34">
          <mxGeometry relative="1" as="geometry" />
        </mxCell>
        <mxCell id="TnxETldwRz7vRZBNHloN-4" value="pet" style="rounded=0;whiteSpace=wrap;html=1;" vertex="1" parent="1">
          <mxGeometry x="346" y="605" width="120" height="60" as="geometry" />
        </mxCell>
        <mxCell id="TnxETldwRz7vRZBNHloN-17" value="" style="edgeStyle=orthogonalEdgeStyle;rounded=0;orthogonalLoop=1;jettySize=auto;html=1;endArrow=none;endFill=0;" edge="1" parent="1" source="TnxETldwRz7vRZBNHloN-5" target="TnxETldwRz7vRZBNHloN-4">
          <mxGeometry relative="1" as="geometry" />
        </mxCell>
        <mxCell id="TnxETldwRz7vRZBNHloN-5" value="atende" style="rhombus;whiteSpace=wrap;html=1;" vertex="1" parent="1">
          <mxGeometry x="226" y="595" width="80" height="80" as="geometry" />
        </mxCell>
        <mxCell id="TnxETldwRz7vRZBNHloN-32" style="edgeStyle=orthogonalEdgeStyle;rounded=0;orthogonalLoop=1;jettySize=auto;html=1;entryX=0.25;entryY=0;entryDx=0;entryDy=0;endArrow=none;endFill=0;" edge="1" parent="1" target="TnxETldwRz7vRZBNHloN-4">
          <mxGeometry relative="1" as="geometry">
            <mxPoint x="326" y="535" as="sourcePoint" />
          </mxGeometry>
        </mxCell>
        <mxCell id="TnxETldwRz7vRZBNHloN-7" value="nome" style="ellipse;whiteSpace=wrap;html=1;" vertex="1" parent="1">
          <mxGeometry x="285" y="485" width="80" height="50" as="geometry" />
        </mxCell>
        <mxCell id="TnxETldwRz7vRZBNHloN-8" value="data de nascimento&amp;nbsp;" style="ellipse;whiteSpace=wrap;html=1;" vertex="1" parent="1">
          <mxGeometry x="375" y="485" width="80" height="50" as="geometry" />
        </mxCell>
        <mxCell id="TnxETldwRz7vRZBNHloN-11" value="raça" style="rounded=0;whiteSpace=wrap;html=1;" vertex="1" parent="1">
          <mxGeometry x="606" y="605" width="120" height="60" as="geometry" />
        </mxCell>
        <mxCell id="TnxETldwRz7vRZBNHloN-33" style="edgeStyle=orthogonalEdgeStyle;rounded=0;orthogonalLoop=1;jettySize=auto;html=1;exitX=0.5;exitY=1;exitDx=0;exitDy=0;entryX=0.867;entryY=-0.004;entryDx=0;entryDy=0;entryPerimeter=0;endArrow=none;endFill=0;" edge="1" parent="1" target="TnxETldwRz7vRZBNHloN-4">
          <mxGeometry relative="1" as="geometry">
            <mxPoint x="506" y="535" as="sourcePoint" />
          </mxGeometry>
        </mxCell>
        <mxCell id="TnxETldwRz7vRZBNHloN-22" value="tipo de pet" style="ellipse;whiteSpace=wrap;html=1;" vertex="1" parent="1">
          <mxGeometry x="465" y="485" width="80" height="50" as="geometry" />
        </mxCell>
        <mxCell id="TnxETldwRz7vRZBNHloN-26" value="" style="edgeStyle=orthogonalEdgeStyle;rounded=0;orthogonalLoop=1;jettySize=auto;html=1;endArrow=none;endFill=0;" edge="1" parent="1" source="TnxETldwRz7vRZBNHloN-24" target="TnxETldwRz7vRZBNHloN-11">
          <mxGeometry relative="1" as="geometry" />
        </mxCell>
        <mxCell id="TnxETldwRz7vRZBNHloN-24" value="possui" style="rhombus;whiteSpace=wrap;html=1;" vertex="1" parent="1">
          <mxGeometry x="496" y="600" width="70" height="70" as="geometry" />
        </mxCell>
        <mxCell id="TnxETldwRz7vRZBNHloN-27" value="1" style="text;html=1;align=center;verticalAlign=middle;resizable=0;points=[];autosize=1;strokeColor=none;fillColor=none;" vertex="1" parent="1">
          <mxGeometry x="186" y="605" width="30" height="30" as="geometry" />
        </mxCell>
        <mxCell id="TnxETldwRz7vRZBNHloN-28" value="N" style="text;html=1;align=center;verticalAlign=middle;resizable=0;points=[];autosize=1;strokeColor=none;fillColor=none;" vertex="1" parent="1">
          <mxGeometry x="316" y="605" width="30" height="30" as="geometry" />
        </mxCell>
        <mxCell id="TnxETldwRz7vRZBNHloN-29" value="N" style="text;html=1;align=center;verticalAlign=middle;resizable=0;points=[];autosize=1;strokeColor=none;fillColor=none;" vertex="1" parent="1">
          <mxGeometry x="466" y="605" width="30" height="30" as="geometry" />
        </mxCell>
        <mxCell id="TnxETldwRz7vRZBNHloN-30" value="1" style="text;html=1;align=center;verticalAlign=middle;resizable=0;points=[];autosize=1;strokeColor=none;fillColor=none;" vertex="1" parent="1">
          <mxGeometry x="576" y="605" width="30" height="30" as="geometry" />
        </mxCell>
        <mxCell id="TnxETldwRz7vRZBNHloN-45" style="edgeStyle=orthogonalEdgeStyle;rounded=0;orthogonalLoop=1;jettySize=auto;html=1;exitX=0.5;exitY=1;exitDx=0;exitDy=0;entryX=0.5;entryY=0;entryDx=0;entryDy=0;endArrow=none;endFill=0;" edge="1" parent="1" source="TnxETldwRz7vRZBNHloN-34" target="TnxETldwRz7vRZBNHloN-42">
          <mxGeometry relative="1" as="geometry" />
        </mxCell>
        <mxCell id="TnxETldwRz7vRZBNHloN-34" value="possui" style="rhombus;whiteSpace=wrap;html=1;" vertex="1" parent="1">
          <mxGeometry x="371" y="695" width="70" height="70" as="geometry" />
        </mxCell>
        <mxCell id="TnxETldwRz7vRZBNHloN-38" style="edgeStyle=orthogonalEdgeStyle;rounded=0;orthogonalLoop=1;jettySize=auto;html=1;exitX=0.5;exitY=0;exitDx=0;exitDy=0;entryX=0.5;entryY=1;entryDx=0;entryDy=0;endArrow=none;endFill=0;" edge="1" parent="1" source="TnxETldwRz7vRZBNHloN-35" target="TnxETldwRz7vRZBNHloN-36">
          <mxGeometry relative="1" as="geometry" />
        </mxCell>
        <mxCell id="TnxETldwRz7vRZBNHloN-35" value="veterinário" style="rounded=0;whiteSpace=wrap;html=1;" vertex="1" parent="1">
          <mxGeometry x="66" y="805" width="120" height="60" as="geometry" />
        </mxCell>
        <mxCell id="TnxETldwRz7vRZBNHloN-36" value="possui" style="rhombus;whiteSpace=wrap;html=1;" vertex="1" parent="1">
          <mxGeometry x="86" y="695" width="80" height="80" as="geometry" />
        </mxCell>
        <mxCell id="TnxETldwRz7vRZBNHloN-39" value="N" style="text;html=1;align=center;verticalAlign=middle;resizable=0;points=[];autosize=1;strokeColor=none;fillColor=none;" vertex="1" parent="1">
          <mxGeometry x="126" y="775" width="30" height="30" as="geometry" />
        </mxCell>
        <mxCell id="TnxETldwRz7vRZBNHloN-40" value="1" style="text;html=1;align=center;verticalAlign=middle;resizable=0;points=[];autosize=1;strokeColor=none;fillColor=none;" vertex="1" parent="1">
          <mxGeometry x="126" y="665" width="30" height="30" as="geometry" />
        </mxCell>
        <mxCell id="TnxETldwRz7vRZBNHloN-42" value="dono" style="rounded=0;whiteSpace=wrap;html=1;" vertex="1" parent="1">
          <mxGeometry x="346" y="805" width="120" height="60" as="geometry" />
        </mxCell>
        <mxCell id="TnxETldwRz7vRZBNHloN-46" value="N" style="text;html=1;align=center;verticalAlign=middle;resizable=0;points=[];autosize=1;strokeColor=none;fillColor=none;" vertex="1" parent="1">
          <mxGeometry x="401" y="663" width="30" height="30" as="geometry" />
        </mxCell>
        <mxCell id="TnxETldwRz7vRZBNHloN-47" value="1" style="text;html=1;align=center;verticalAlign=middle;resizable=0;points=[];autosize=1;strokeColor=none;fillColor=none;" vertex="1" parent="1">
          <mxGeometry x="401" y="775" width="30" height="30" as="geometry" />
        </mxCell>
      </root>
    </mxGraphModel>
  </diagram>
</mxfile>
